<svg xmlns="http://www.w3.org/2000/svg" xmlns:xlink="http://www.w3.org/1999/xlink" width="500" zoomAndPan="magnify" viewBox="0 0 375 374.999991" height="500" preserveAspectRatio="xMidYMid meet" version="1.0"><defs><g/><clipPath id="22c3c6ba15"><path d="M 122.53125 77.082031 L 252.28125 77.082031 L 252.28125 227.082031 L 122.53125 227.082031 Z M 122.53125 77.082031 " clip-rule="nonzero"/></clipPath></defs><g clip-path="url(#22c3c6ba15)"><path fill="#022b54" d="M 187.511719 208.050781 C 157.519531 190.734375 139.042969 158.730469 139.042969 124.097656 C 139.042969 124.097656 152.96875 177.992188 204.175781 195.898438 C 199.125 200.476562 193.554688 204.5625 187.511719 208.050781 Z M 187.511719 77.089844 C 159.433594 104.753906 122.5625 114.585938 122.5625 114.585938 C 122.5625 160.992188 147.324219 203.875 187.511719 227.078125 C 227.703125 203.875 252.460938 160.992188 252.460938 114.585938 C 252.460938 114.585938 215.59375 104.753906 187.511719 77.089844 " fill-opacity="1" fill-rule="nonzero"/></g><g fill="#022b54" fill-opacity="1"><g transform="translate(97.130781, 278.648535)"><g><path d="M 15.859375 -15 L 31.15625 -15 C 31.132812 -12.738281 30.765625 -10.65625 30.046875 -8.75 C 29.335938 -6.851562 28.332031 -5.207031 27.03125 -3.8125 C 25.738281 -2.414062 24.195312 -1.328125 22.40625 -0.546875 C 20.613281 0.222656 18.640625 0.609375 16.484375 0.609375 C 14.378906 0.609375 12.421875 0.242188 10.609375 -0.484375 C 8.804688 -1.222656 7.226562 -2.257812 5.875 -3.59375 C 4.53125 -4.9375 3.488281 -6.523438 2.75 -8.359375 C 2.007812 -10.191406 1.640625 -12.175781 1.640625 -14.3125 C 1.640625 -16.46875 2 -18.453125 2.71875 -20.265625 C 3.445312 -22.085938 4.472656 -23.675781 5.796875 -25.03125 C 7.128906 -26.382812 8.695312 -27.4375 10.5 -28.1875 C 12.300781 -28.9375 14.253906 -29.3125 16.359375 -29.3125 C 18.734375 -29.3125 20.929688 -28.847656 22.953125 -27.921875 C 24.984375 -26.992188 26.679688 -25.707031 28.046875 -24.0625 C 29.410156 -22.425781 30.3125 -20.53125 30.75 -18.375 L 24.359375 -18.375 C 23.753906 -19.925781 22.738281 -21.148438 21.3125 -22.046875 C 19.894531 -22.953125 18.285156 -23.40625 16.484375 -23.40625 C 14.785156 -23.40625 13.296875 -23.015625 12.015625 -22.234375 C 10.734375 -21.460938 9.726562 -20.398438 9 -19.046875 C 8.269531 -17.691406 7.90625 -16.113281 7.90625 -14.3125 C 7.90625 -12.53125 8.257812 -10.960938 8.96875 -9.609375 C 9.6875 -8.253906 10.6875 -7.191406 11.96875 -6.421875 C 13.257812 -5.660156 14.765625 -5.28125 16.484375 -5.28125 C 18.335938 -5.28125 20.003906 -5.734375 21.484375 -6.640625 C 22.960938 -7.546875 23.960938 -8.734375 24.484375 -10.203125 L 15.859375 -10.203125 Z M 15.859375 -15 "/></g></g></g><g fill="#022b54" fill-opacity="1"><g transform="translate(130.211565, 278.648535)"><g><path d="M 14.84375 0.609375 C 12.570312 0.609375 10.546875 0.125 8.765625 -0.84375 C 6.992188 -1.8125 5.585938 -3.148438 4.546875 -4.859375 C 3.515625 -6.566406 3 -8.539062 3 -10.78125 L 3 -28.703125 L 9.21875 -28.703125 L 9.21875 -11.0625 C 9.21875 -9.289062 9.742188 -7.878906 10.796875 -6.828125 C 11.847656 -5.773438 13.195312 -5.25 14.84375 -5.25 C 16.507812 -5.25 17.867188 -5.773438 18.921875 -6.828125 C 19.972656 -7.878906 20.5 -9.289062 20.5 -11.0625 L 20.5 -28.703125 L 26.6875 -28.703125 L 26.6875 -10.78125 C 26.6875 -8.539062 26.171875 -6.566406 25.140625 -4.859375 C 24.117188 -3.148438 22.710938 -1.8125 20.921875 -0.84375 C 19.140625 0.125 17.113281 0.609375 14.84375 0.609375 Z M 14.84375 0.609375 "/></g></g></g><g fill="#022b54" fill-opacity="1"><g transform="translate(160.299915, 278.648535)"><g><path d="M 22.34375 0 L 20.34375 -5.453125 L 8.890625 -5.453125 L 6.921875 0 L 0.375 0 L 11.609375 -28.703125 L 17.46875 -28.703125 L 29.0625 0 Z M 14.59375 -21.109375 L 10.859375 -10.859375 L 18.375 -10.859375 Z M 14.59375 -21.109375 "/></g></g></g><g fill="#022b54" fill-opacity="1"><g transform="translate(190.142311, 278.648535)"><g><path d="M 19.0625 0 L 13.484375 -9.796875 L 9.515625 -9.796875 L 9.515625 0 L 3.28125 0 L 3.28125 -28.703125 L 14.890625 -28.703125 C 16.796875 -28.703125 18.5 -28.289062 20 -27.46875 C 21.507812 -26.644531 22.703125 -25.519531 23.578125 -24.09375 C 24.453125 -22.675781 24.890625 -21.039062 24.890625 -19.1875 C 24.890625 -17.332031 24.414062 -15.671875 23.46875 -14.203125 C 22.53125 -12.742188 21.269531 -11.628906 19.6875 -10.859375 L 26.03125 0 Z M 9.515625 -22.953125 L 9.515625 -15.53125 L 14.46875 -15.53125 C 15.757812 -15.53125 16.769531 -15.878906 17.5 -16.578125 C 18.238281 -17.273438 18.609375 -18.160156 18.609375 -19.234375 C 18.609375 -20.328125 18.238281 -21.21875 17.5 -21.90625 C 16.769531 -22.601562 15.757812 -22.953125 14.46875 -22.953125 Z M 9.515625 -22.953125 "/></g></g></g><g fill="#022b54" fill-opacity="1"><g transform="translate(217.64815, 278.648535)"><g><path d="M 14.140625 -28.703125 C 16.242188 -28.703125 18.179688 -28.34375 19.953125 -27.625 C 21.734375 -26.914062 23.273438 -25.921875 24.578125 -24.640625 C 25.878906 -23.359375 26.890625 -21.847656 27.609375 -20.109375 C 28.335938 -18.367188 28.703125 -16.460938 28.703125 -14.390625 C 28.703125 -12.316406 28.335938 -10.40625 27.609375 -8.65625 C 26.890625 -6.90625 25.878906 -5.378906 24.578125 -4.078125 C 23.273438 -2.773438 21.734375 -1.769531 19.953125 -1.0625 C 18.179688 -0.351562 16.242188 0 14.140625 0 L 3.28125 0 L 3.28125 -28.703125 Z M 13.984375 -5.78125 C 15.617188 -5.78125 17.066406 -6.148438 18.328125 -6.890625 C 19.585938 -7.628906 20.570312 -8.644531 21.28125 -9.9375 C 21.988281 -11.238281 22.34375 -12.722656 22.34375 -14.390625 C 22.34375 -16.054688 21.988281 -17.53125 21.28125 -18.8125 C 20.570312 -20.101562 19.585938 -21.109375 18.328125 -21.828125 C 17.066406 -22.554688 15.617188 -22.921875 13.984375 -22.921875 L 9.515625 -22.921875 L 9.515625 -5.78125 Z M 13.984375 -5.78125 "/></g></g></g><g fill="#022b54" fill-opacity="1"><g transform="translate(248.433361, 278.648535)"><g><path d="M 22.34375 0 L 20.34375 -5.453125 L 8.890625 -5.453125 L 6.921875 0 L 0.375 0 L 11.609375 -28.703125 L 17.46875 -28.703125 L 29.0625 0 Z M 14.59375 -21.109375 L 10.859375 -10.859375 L 18.375 -10.859375 Z M 14.59375 -21.109375 "/></g></g></g><g fill="#186b9d" fill-opacity="1"><g transform="translate(164.121091, 310.663544)"><g><path d="M 6.578125 -14 C 7.609375 -14 8.554688 -13.820312 9.421875 -13.46875 C 10.285156 -13.125 11.035156 -12.640625 11.671875 -12.015625 C 12.304688 -11.390625 12.800781 -10.648438 13.15625 -9.796875 C 13.507812 -8.941406 13.6875 -8.007812 13.6875 -7 C 13.6875 -5.988281 13.507812 -5.054688 13.15625 -4.203125 C 12.800781 -3.347656 12.304688 -2.609375 11.671875 -1.984375 C 11.035156 -1.359375 10.285156 -0.867188 9.421875 -0.515625 C 8.554688 -0.171875 7.609375 0 6.578125 0 L 1.921875 0 L 1.921875 -14 Z M 6.515625 -1.640625 C 7.566406 -1.640625 8.492188 -1.875 9.296875 -2.34375 C 10.109375 -2.8125 10.738281 -3.445312 11.1875 -4.25 C 11.644531 -5.050781 11.875 -5.96875 11.875 -7 C 11.875 -8.039062 11.644531 -8.957031 11.1875 -9.75 C 10.738281 -10.550781 10.109375 -11.1875 9.296875 -11.65625 C 8.492188 -12.125 7.566406 -12.359375 6.515625 -12.359375 L 3.65625 -12.359375 L 3.65625 -1.640625 Z M 6.515625 -1.640625 "/></g></g></g><g fill="#186b9d" fill-opacity="1"><g transform="translate(178.775307, 310.663544)"><g><path d="M 8.28125 0.234375 C 7.226562 0.234375 6.253906 0.0507812 5.359375 -0.3125 C 4.460938 -0.675781 3.6875 -1.179688 3.03125 -1.828125 C 2.375 -2.484375 1.863281 -3.25 1.5 -4.125 C 1.132812 -5 0.953125 -5.957031 0.953125 -7 C 0.953125 -8.03125 1.132812 -8.984375 1.5 -9.859375 C 1.863281 -10.742188 2.375 -11.507812 3.03125 -12.15625 C 3.6875 -12.8125 4.460938 -13.320312 5.359375 -13.6875 C 6.253906 -14.050781 7.226562 -14.234375 8.28125 -14.234375 C 9.34375 -14.234375 10.320312 -14.050781 11.21875 -13.6875 C 12.113281 -13.320312 12.882812 -12.8125 13.53125 -12.15625 C 14.1875 -11.507812 14.695312 -10.75 15.0625 -9.875 C 15.4375 -9 15.625 -8.039062 15.625 -7 C 15.625 -5.957031 15.4375 -4.992188 15.0625 -4.109375 C 14.695312 -3.234375 14.1875 -2.472656 13.53125 -1.828125 C 12.882812 -1.179688 12.113281 -0.675781 11.21875 -0.3125 C 10.320312 0.0507812 9.34375 0.234375 8.28125 0.234375 Z M 8.28125 -1.484375 C 9.34375 -1.484375 10.289062 -1.722656 11.125 -2.203125 C 11.957031 -2.679688 12.613281 -3.335938 13.09375 -4.171875 C 13.570312 -5.003906 13.8125 -5.945312 13.8125 -7 C 13.8125 -8.050781 13.570312 -8.992188 13.09375 -9.828125 C 12.613281 -10.660156 11.957031 -11.316406 11.125 -11.796875 C 10.289062 -12.273438 9.34375 -12.515625 8.28125 -12.515625 C 7.226562 -12.515625 6.285156 -12.269531 5.453125 -11.78125 C 4.617188 -11.300781 3.960938 -10.644531 3.484375 -9.8125 C 3.003906 -8.976562 2.765625 -8.039062 2.765625 -7 C 2.765625 -5.945312 3.003906 -5.003906 3.484375 -4.171875 C 3.960938 -3.347656 4.617188 -2.691406 5.453125 -2.203125 C 6.285156 -1.722656 7.226562 -1.484375 8.28125 -1.484375 Z M 8.28125 -1.484375 "/></g></g></g><g fill="#186b9d" fill-opacity="1"><g transform="translate(195.348766, 310.663544)"><g><path d="M 8.140625 0.21875 C 7.097656 0.21875 6.140625 0.0390625 5.265625 -0.3125 C 4.390625 -0.664062 3.628906 -1.164062 2.984375 -1.8125 C 2.335938 -2.457031 1.835938 -3.21875 1.484375 -4.09375 C 1.128906 -4.976562 0.953125 -5.945312 0.953125 -7 C 0.953125 -8.050781 1.128906 -9.015625 1.484375 -9.890625 C 1.835938 -10.773438 2.335938 -11.539062 2.984375 -12.1875 C 3.628906 -12.832031 4.390625 -13.332031 5.265625 -13.6875 C 6.140625 -14.039062 7.097656 -14.21875 8.140625 -14.21875 C 9.222656 -14.21875 10.210938 -14.015625 11.109375 -13.609375 C 12.003906 -13.203125 12.769531 -12.628906 13.40625 -11.890625 C 14.039062 -11.148438 14.492188 -10.273438 14.765625 -9.265625 L 12.984375 -9.265625 C 12.609375 -10.273438 11.992188 -11.066406 11.140625 -11.640625 C 10.285156 -12.210938 9.285156 -12.5 8.140625 -12.5 C 7.097656 -12.5 6.171875 -12.265625 5.359375 -11.796875 C 4.546875 -11.328125 3.910156 -10.675781 3.453125 -9.84375 C 2.992188 -9.007812 2.765625 -8.0625 2.765625 -7 C 2.765625 -5.914062 2.992188 -4.960938 3.453125 -4.140625 C 3.910156 -3.316406 4.546875 -2.671875 5.359375 -2.203125 C 6.171875 -1.734375 7.097656 -1.5 8.140625 -1.5 C 9.316406 -1.5 10.335938 -1.800781 11.203125 -2.40625 C 12.066406 -3.007812 12.679688 -3.851562 13.046875 -4.9375 L 14.84375 -4.9375 C 14.570312 -3.882812 14.113281 -2.972656 13.46875 -2.203125 C 12.832031 -1.429688 12.054688 -0.832031 11.140625 -0.40625 C 10.234375 0.0078125 9.234375 0.21875 8.140625 0.21875 Z M 8.140625 0.21875 "/></g></g></g></svg>